<?xml version="1.0" encoding="utf-8"?>
<!-- Generator: Adobe Illustrator 25.2.3, SVG Export Plug-In . SVG Version: 6.00 Build 0)  -->
<svg version="1.1" id="Layer_1" xmlns="http://www.w3.org/2000/svg" xmlns:xlink="http://www.w3.org/1999/xlink" x="0px" y="0px"
	 viewBox="0 0 200 100" style="enable-background:new 0 0 200 100;" xml:space="preserve">
<style type="text/css">
	.st0{fill:#FFFFFF;}
	.st1{fill:#EC1E50;}
</style>
<path class="st0" d="M78.43,31.09h4.48l-6.98-13.75c-0.37-0.68-0.73-0.93-1.56-0.93h-3.85l-7.34,14.68h4.47l1.3-2.71h8.23
	L78.43,31.09z M115.14,31.09h4.43l-6.98-13.75c-0.36-0.68-0.73-0.93-1.56-0.93h-3.85l-7.34,14.68h4.48l1.3-2.71h8.23L115.14,31.09z
	 M130.91,27.5c0.16,0.52,0.78,0.88,1.46,0.88h4.22l3.12-8.64l2.97,11.35h3.96l-3.28-13.01c-0.31-1.3-1.04-1.67-2.24-1.67h-4.11
	L134.04,25l-2.35-7.29c-0.31-0.93-0.89-1.3-1.82-1.3h-4.63l-3.8,14.68h4.01l2.91-11.35L130.91,27.5z M112.38,25.42h-5.47l2.76-5.88
	L112.38,25.42z M75.73,25.42h-5.47l2.76-5.88L75.73,25.42z M60.06,31.09l1.67-3.39h-9.84v-11.3h-4.22v14.68H60.06z M89.32,31.09
	h4.06v-11.3l7.08-0.47v-2.92H82.23v2.92l7.08,0.47V31.09z"/>
<path class="st0" d="M19.09,46l3.59-1.31c0.75-0.27,0.75,0.33,0.75,1.23v1.65c0,1.34-0.45,1.5-1.05,1.72l-3.29,1.2V46z"/>
<path class="st0" d="M19.09,38.67l9.13-3.32c0.75-0.27,0.75,0.33,0.75,1.23v1.65c0,1.34-0.45,1.51-1.05,1.73l-8.83,3.21V38.67z"/>
<path class="st0" d="M18.34,28.21l-4.64-1.69c-0.6-0.22-0.6-1.03-0.6-1.33c0,0,0,0.98,0.9,0.65l22.75-8.28
	c1.8-0.65,1.8-1.16,1.05-1.43c0.75,0.27,0.75,0.27,0.75,2.47c0,2.1,0,2.8-0.9,3.12l-17.81,6.48C19.09,28.49,19.09,28.49,18.34,28.21
	"/>
<path class="st1" d="M15.05,19.68L23,22.57l6.17-2.25L14.3,14.92c-1.05-0.38-1.2-0.44-1.2,0.31v1.95
	C13.1,18.97,14.45,19.46,15.05,19.68"/>
<path class="st1" d="M37.8,23.47l-2.47-0.9l-6.17,2.25l3.91,1.42l3.68-1.34C38.55,24.25,38.55,23.74,37.8,23.47"/>
<path class="st0" d="M37.8,23.47c0.75,0.27,0.75,0.78-1.05,1.43l-17.66,6.43v4.49l18.56-6.76c0.9-0.33,0.9-1.03,0.9-3.12
	C38.55,23.74,38.55,23.74,37.8,23.47"/>
<path class="st1" d="M37.8,16.13c0,0-16.47-5.99-17.52-6.37c-1.05-0.38-1.2-0.44-1.2,0.31v1.95c0,1.8,1.35,2.29,1.95,2.5l12.04,4.38
	l3.68-1.34C38.55,16.91,38.55,16.41,37.8,16.13"/>
<path class="st1" d="M14,25.85l5.09-1.85l-4.79-1.74c-1.05-0.38-1.2-0.44-1.2,0.31v2.63C13.1,25.19,13.1,26.17,14,25.85"/>
<path class="st0" d="M58.55,38.94l-0.47,1.23c0,0-1.52-0.79-3.71-0.79c-2.87,0-5.63,1.69-5.63,5.03c0,3.26,2.71,4.85,5.68,4.85
	c2.31,0,3.87-0.86,3.87-0.86l0.41,1.23c0,0-1.78,0.93-4.35,0.93c-3.9,0-7.06-2.12-7.06-6.15c0-4.08,3.21-6.32,7.01-6.32
	C56.79,38.07,58.55,38.94,58.55,38.94"/>
<path class="st0" d="M68.23,39.49l-3.21,6.27h6.44L68.23,39.49z M72.13,47.05h-7.77l-1.69,3.3h-1.54l6.29-12.09h0.93
	c0.48,0,0.76,0.16,0.97,0.55l6.05,11.54h-1.54L72.13,47.05z"/>
<path class="st0" d="M89.2,42.17c0-1.35-0.97-2.61-3.71-2.61H80.6v4.92c0.98,0.43,2.35,0.76,3.73,0.76
	C87.92,45.24,89.2,43.84,89.2,42.17 M80.6,45.81v4.54h-1.43V38.26h6.46c3.23,0,4.99,1.55,4.99,3.85c0,1.81-0.98,3.2-2.9,3.9
	l2.82,4.34h-1.71l-2.57-3.96c-0.57,0.09-1.21,0.14-1.88,0.14C82.93,46.54,81.48,46.24,80.6,45.81"/>
<path class="st0" d="M100.88,50.54c-3.9,0-7.06-2.12-7.06-6.15c0-4.08,3.26-6.32,7.12-6.32c2.64,0,4.56,0.86,4.56,0.86l-0.43,1.16
	c0,0-1.62-0.73-4.06-0.73c-2.92,0-5.73,1.69-5.73,5.03c0,3.26,2.71,4.85,5.68,4.85c1.33,0,2.44-0.28,3.3-0.59v-4.04h1.38v4.89
	C105.63,49.51,103.65,50.54,100.88,50.54"/>
<path class="st0" d="M110.87,44.26c0,2.94,1.97,5.01,5.2,5.01c3.23,0,5.18-2.07,5.18-5.01c0-2.9-1.95-4.91-5.18-4.91
	C112.84,39.35,110.87,41.35,110.87,44.26 M122.69,44.26c0,3.44-2.38,6.3-6.62,6.3c-4.28,0-6.63-2.87-6.63-6.3
	c0-3.39,2.37-6.2,6.63-6.2C120.3,38.06,122.69,40.87,122.69,44.26"/>
<g>
</g>
<g>
</g>
<g>
</g>
<g>
</g>
<g>
</g>
<g>
</g>
</svg>
